<svg xmlns="http://www.w3.org/2000/svg" viewBox="0 0 180 48" fill="none" aria-hidden="true">
  <circle cx="6" cy="8" r="2.5" fill="currentColor"/>
  <circle cx="6" cy="18" r="2.5" fill="currentColor"/>
  <circle cx="6" cy="28" r="2.5" fill="currentColor"/>
  <circle cx="6" cy="38" r="2.5" fill="currentColor"/>
  <path d="M22 6c8 0 14 6 14 18s-6 18-14 18c-5 0-9-2-11-5v-31c2-3 6-5 11-5zm-2 6v24c1 2 3 3 5 3 4 0 7-4 7-15s-3-15-7-15c-2 0-4 1-5 3z" fill="currentColor"/>
  <text x="52" y="22" fill="currentColor" font-family="Bahnschrift, Segoe UI, sans-serif" font-size="15" font-weight="700">Dance Life</text>
  <text x="52" y="38" fill="currentColor" font-family="Bahnschrift, Segoe UI, sans-serif" font-size="10" font-weight="400" opacity="0.9">H:>;0 B0=F52</text>
</svg>
